<?xml version="1.0" standalone="no"?>
<!DOCTYPE svg PUBLIC "-//W3C//DTD SVG 20010904//EN"
 "http://www.w3.org/TR/2001/REC-SVG-20010904/DTD/svg10.dtd">
<svg version="1.0" xmlns="http://www.w3.org/2000/svg"
 width="1280.000000pt" height="1202.000000pt" viewBox="0 0 1280.000000 1202.000000"
 preserveAspectRatio="xMidYMid meet">
<metadata>
Created by potrace 1.15, written by Peter Selinger 2001-2017
</metadata>
<g transform="translate(0.000000,1202.000000) scale(0.100000,-0.100000)"
fill="#000000" stroke="none">
<path d="M10220 11630 c-13 -17 -28 -30 -32 -30 -4 0 -71 -39 -149 -87 -77
-49 -148 -92 -158 -98 -58 -35 -220 -147 -231 -160 -7 -8 -16 -15 -21 -15 -5
0 -51 -30 -102 -68 -50 -37 -102 -74 -113 -82 -42 -29 -259 -193 -264 -200 -3
-3 -34 -28 -70 -55 -36 -27 -67 -52 -70 -55 -3 -3 -40 -34 -83 -68 -42 -34
-87 -71 -100 -81 -12 -11 -58 -50 -102 -87 -44 -37 -82 -70 -85 -73 -3 -4 -25
-22 -50 -41 -24 -19 -52 -42 -61 -50 -50 -47 -101 -91 -154 -135 -33 -28 -72
-61 -86 -75 -81 -77 -143 -133 -218 -200 -46 -41 -100 -89 -120 -107 -24 -22
-42 -31 -56 -27 -29 7 -63 -30 -46 -50 9 -11 5 -19 -21 -41 -209 -175 -1257
-1215 -1763 -1749 -82 -88 -156 -165 -163 -173 -7 -7 -24 -13 -36 -13 -31 0
-70 -42 -54 -58 9 -9 2 -23 -32 -59 -25 -26 -56 -59 -70 -73 -91 -98 -162
-174 -209 -226 -30 -32 -93 -99 -140 -149 -48 -49 -122 -130 -165 -180 -44
-49 -111 -124 -150 -165 -39 -41 -100 -109 -136 -149 -36 -41 -80 -91 -99
-110 -18 -20 -81 -90 -139 -156 -58 -66 -109 -122 -112 -125 -3 -3 -59 -66
-125 -140 -66 -74 -122 -137 -125 -140 -3 -3 -34 -39 -70 -80 -61 -71 -106
-121 -157 -176 -12 -13 -28 -24 -36 -24 -18 0 -43 -28 -52 -60 -9 -29 -28 -55
-93 -125 -26 -28 -64 -71 -84 -95 -20 -25 -47 -57 -60 -71 -13 -14 -48 -54
-78 -89 -30 -35 -73 -85 -96 -110 -22 -25 -80 -92 -129 -150 -49 -58 -92 -107
-95 -110 -4 -3 -31 -35 -61 -71 -54 -65 -135 -161 -233 -273 -28 -33 -58 -67
-66 -76 -8 -10 -64 -78 -125 -151 -60 -73 -117 -140 -126 -148 -9 -9 -37 -43
-64 -76 -26 -33 -64 -79 -84 -101 -20 -23 -56 -67 -81 -98 -25 -30 -56 -58
-70 -62 -14 -3 -39 -12 -57 -20 -17 -8 -36 -14 -42 -14 -42 0 -207 -122 -266
-197 -72 -92 -103 -166 -130 -306 -12 -63 -28 -91 -75 -137 -3 -3 -39 -45 -80
-95 -41 -49 -77 -92 -81 -95 -3 -3 -28 -32 -55 -66 -27 -33 -70 -85 -96 -115
-92 -108 -174 -205 -212 -252 -21 -27 -47 -56 -56 -65 -9 -10 -38 -44 -65 -77
-26 -33 -62 -76 -79 -95 -39 -44 -171 -199 -212 -250 -17 -22 -55 -67 -85
-102 -64 -74 -64 -74 -211 -248 -62 -74 -147 -175 -188 -225 -41 -49 -82 -97
-90 -105 -9 -9 -28 -32 -43 -52 -28 -37 -30 -60 -7 -113 42 -96 55 -123 85
-168 78 -122 189 -189 370 -226 28 -5 63 -12 78 -16 24 -5 34 0 63 32 19 20
34 41 34 45 0 5 24 41 53 81 29 40 75 106 102 147 28 41 52 77 55 80 3 3 26
34 50 70 24 36 62 92 85 125 23 33 68 98 100 145 33 47 87 126 122 175 34 50
89 128 121 175 32 47 79 114 103 150 25 36 75 108 111 160 36 52 87 127 113
165 27 39 68 98 91 133 24 34 69 98 100 142 65 90 60 89 151 39 29 -16 60 -29
70 -29 11 0 23 -4 29 -10 15 -15 172 -29 261 -23 82 6 82 6 93 -21 11 -30 56
-130 73 -161 5 -11 12 -51 15 -90 5 -78 26 -127 69 -165 46 -41 70 -50 128
-50 65 0 115 27 160 86 26 34 29 45 29 118 0 64 -4 87 -19 111 -26 40 -56 67
-98 90 -26 13 -45 39 -80 107 l-47 90 63 66 c81 85 131 168 166 272 18 52 25
216 12 284 -10 54 -9 63 10 95 12 20 27 40 35 44 8 4 14 13 14 20 0 7 13 26
28 43 15 18 34 42 42 54 8 12 20 28 26 34 19 20 574 776 574 782 0 3 6 11 13
18 6 8 19 24 27 36 8 12 21 28 28 36 6 7 12 15 12 18 0 3 45 67 100 141 55 74
100 139 100 144 0 5 4 11 9 13 7 2 94 123 126 176 14 23 19 29 73 102 41 56
52 65 75 62 26 -3 28 0 25 31 -1 18 5 43 14 55 8 12 91 100 184 195 206 211
328 340 414 437 36 41 76 86 90 101 30 32 117 133 145 168 11 14 31 37 45 52
44 47 75 83 110 129 19 25 37 47 40 50 3 3 28 34 55 70 27 36 52 67 56 70 4 3
42 52 84 110 43 58 82 107 87 108 4 2 8 10 8 17 0 7 7 15 15 19 8 3 15 10 15
16 0 6 25 44 55 85 30 40 55 79 55 84 0 6 5 11 10 11 6 0 14 8 18 18 8 19 63
104 73 112 4 3 15 21 26 40 56 101 78 128 111 135 21 4 32 12 32 23 0 21 50
70 134 131 32 24 66 51 75 60 9 9 52 45 95 81 43 36 95 80 114 98 20 18 77 70
126 115 143 130 211 195 361 344 140 139 179 181 330 348 44 49 87 96 95 105
13 13 68 78 135 158 11 14 32 38 47 56 15 17 28 34 28 38 0 4 6 13 13 20 25
25 187 248 187 257 0 5 4 11 8 13 4 2 28 35 52 73 25 39 51 79 58 90 7 11 15
28 18 37 3 9 18 18 32 20 18 2 28 10 32 28 4 15 29 40 68 67 35 24 66 43 69
43 4 0 30 18 59 40 29 22 58 40 64 40 5 0 10 5 10 10 0 6 8 13 18 17 15 6 88
58 102 73 13 14 89 70 95 70 4 0 17 10 29 23 11 12 41 38 66 57 25 19 54 42
65 51 39 34 129 114 147 132 10 9 20 17 23 17 10 0 435 421 587 581 119 126
132 140 196 218 21 24 57 65 82 90 25 26 63 69 85 95 22 26 54 63 70 81 17 18
41 45 55 61 99 117 207 234 215 234 13 0 93 -58 125 -91 82 -85 159 -169 220
-238 36 -41 72 -82 80 -91 8 -10 31 -35 50 -56 20 -21 51 -59 70 -84 19 -25
43 -54 55 -65 11 -11 36 -40 55 -65 41 -53 64 -81 106 -129 17 -20 43 -54 59
-76 16 -22 34 -44 40 -50 6 -5 21 -27 34 -47 12 -21 27 -38 32 -38 5 0 9 -6 9
-14 0 -8 4 -16 8 -18 13 -5 132 -166 132 -177 0 -6 4 -11 8 -11 4 0 19 -18 32
-40 14 -22 28 -40 33 -40 4 0 7 -5 7 -10 0 -6 25 -44 55 -85 30 -40 55 -77 55
-81 0 -3 14 -23 30 -44 17 -21 30 -40 30 -44 0 -6 83 -133 100 -153 5 -7 10
-15 10 -17 0 -3 17 -34 38 -68 21 -35 41 -70 45 -78 4 -8 16 -28 27 -45 11
-16 22 -37 26 -45 3 -8 9 -22 14 -30 5 -8 26 -49 46 -90 20 -41 41 -76 45 -78
5 -2 9 -10 9 -17 0 -7 6 -26 14 -42 15 -29 56 -120 83 -183 8 -19 21 -48 29
-63 8 -16 14 -36 14 -46 0 -9 7 -26 15 -37 8 -10 15 -31 15 -46 0 -15 4 -29 9
-33 6 -3 13 -26 17 -50 3 -25 10 -45 14 -45 4 0 10 -23 13 -52 4 -28 10 -54
15 -57 5 -3 12 -37 15 -76 3 -38 10 -71 16 -73 15 -5 15 -409 1 -414 -6 -2
-13 -21 -16 -43 -3 -22 -12 -53 -19 -70 -46 -104 -73 -154 -97 -186 -15 -20
-28 -39 -28 -42 0 -21 -210 -229 -301 -298 -17 -13 -39 -31 -48 -39 -9 -9 -39
-31 -66 -50 -28 -19 -51 -38 -53 -42 -2 -5 -8 -8 -13 -8 -5 0 -43 -25 -84 -55
-40 -30 -77 -55 -81 -55 -3 0 -23 -13 -44 -30 -21 -16 -42 -30 -48 -30 -6 0
-12 -3 -14 -7 -1 -5 -37 -30 -78 -57 -74 -49 -295 -210 -316 -230 -6 -6 -33
-29 -60 -51 -56 -45 -135 -124 -211 -211 -34 -38 -53 -53 -53 -41 0 9 4 17 9
17 5 0 11 15 14 33 2 17 19 70 37 117 50 133 59 161 81 230 11 36 24 72 29 80
4 9 11 31 15 50 4 19 11 41 15 50 4 8 13 42 19 74 8 47 8 62 -2 68 -7 4 -17 1
-26 -10 -18 -24 -171 -341 -171 -356 0 -3 -11 -29 -24 -58 -13 -29 -31 -73
-41 -98 -10 -25 -23 -58 -30 -75 -7 -16 -21 -50 -30 -75 -9 -25 -21 -53 -26
-62 -5 -10 -9 -23 -9 -30 0 -7 -6 -25 -14 -40 -8 -15 -17 -40 -21 -57 -3 -16
-24 -48 -46 -69 -34 -34 -37 -41 -24 -52 16 -14 20 -46 6 -54 -5 -3 -12 -23
-16 -43 -4 -21 -10 -42 -14 -48 -4 -5 -15 -37 -25 -70 -9 -33 -24 -80 -32
-105 -16 -51 -19 -116 -5 -124 8 -5 71 84 71 99 0 18 74 155 81 148 4 -4 10
-53 12 -108 6 -130 24 -276 37 -289 6 -6 10 -26 10 -46 0 -20 7 -45 15 -56 8
-10 15 -33 15 -50 0 -16 7 -39 15 -50 8 -10 15 -31 15 -45 0 -23 14 -63 41
-111 5 -10 9 -26 9 -36 0 -10 7 -27 15 -38 8 -10 15 -29 15 -40 0 -12 7 -27
15 -34 8 -7 15 -21 15 -32 0 -11 6 -32 14 -46 7 -15 19 -40 26 -57 38 -93 68
-163 86 -198 8 -16 14 -35 14 -42 0 -7 8 -28 17 -47 27 -54 30 -62 38 -96 3
-18 11 -32 16 -32 5 0 9 -11 9 -24 0 -14 7 -31 15 -40 8 -8 15 -30 15 -49 0
-19 7 -40 15 -47 8 -7 17 -26 20 -44 4 -17 15 -42 25 -56 l20 -25 0 34 c0 19
-9 54 -20 78 -11 24 -29 62 -40 86 -11 24 -20 50 -20 59 0 9 -7 21 -15 28 -8
7 -15 22 -15 34 0 12 -7 31 -15 42 -8 10 -15 27 -15 37 0 9 -4 25 -10 35 -5 9
-16 35 -25 57 -24 59 -45 107 -61 138 -8 16 -14 33 -14 38 0 5 -11 32 -24 59
-14 28 -28 64 -31 80 -4 17 -11 30 -16 30 -5 0 -9 11 -9 24 0 14 -7 31 -15 40
-8 8 -15 25 -15 38 0 13 -7 32 -15 42 -8 11 -15 27 -15 37 0 9 -7 30 -15 45
-8 16 -15 39 -15 51 0 12 -4 25 -10 28 -5 3 -10 16 -10 28 0 12 -7 35 -15 51
-8 15 -15 43 -15 60 0 17 -6 40 -14 51 -7 11 -16 54 -18 95 -3 41 -11 76 -17
78 -17 6 -14 240 4 272 8 14 14 41 15 61 0 19 7 44 15 55 8 10 15 28 15 39 0
25 90 205 102 205 4 0 8 5 8 11 0 27 215 256 299 319 18 14 42 33 52 43 11 9
23 17 29 17 6 0 10 4 10 8 0 4 18 19 40 32 22 14 40 28 40 33 0 4 5 7 10 7 6
0 44 25 85 55 40 30 77 55 81 55 3 0 23 14 44 30 21 17 41 30 44 30 4 0 12 4
19 10 32 26 178 130 183 130 5 0 189 134 211 154 6 6 26 22 44 36 46 34 138
117 174 156 58 62 115 133 115 143 0 5 4 11 8 13 12 5 72 107 72 122 0 7 7 19
15 26 8 7 15 25 15 40 0 16 5 30 10 32 6 2 15 28 21 58 5 30 15 80 20 110 13
64 6 325 -9 343 -5 7 -12 43 -15 82 -3 38 -10 71 -16 73 -6 2 -11 23 -11 47 0
25 -6 50 -15 59 -8 8 -15 28 -15 44 0 16 -7 43 -15 58 -8 16 -15 39 -15 51 0
12 -4 25 -10 28 -5 3 -10 13 -10 22 0 15 -19 65 -46 116 -8 16 -14 37 -14 47
0 9 -7 23 -15 30 -8 7 -15 20 -15 29 0 9 -7 25 -15 35 -8 11 -15 28 -15 38 0
10 -4 18 -10 18 -5 0 -10 9 -10 19 0 11 -7 26 -15 35 -8 8 -15 21 -15 29 0 8
-7 20 -15 27 -8 7 -15 20 -15 30 0 10 -7 23 -15 30 -8 7 -15 21 -15 31 0 11
-4 19 -9 19 -5 0 -13 10 -17 23 -4 12 -9 24 -13 27 -3 3 -16 25 -29 50 -13 25
-32 59 -42 75 -10 17 -29 49 -41 73 -13 23 -26 42 -30 42 -3 0 -9 8 -13 18 -3
9 -11 26 -18 36 -67 99 -118 179 -118 183 0 3 -13 22 -29 42 -15 20 -30 41
-32 47 -2 6 -14 24 -26 40 -54 70 -113 155 -113 163 0 5 -4 11 -8 13 -5 2 -50
58 -100 125 -50 67 -102 135 -116 150 -14 15 -26 31 -26 35 0 6 -25 38 -60 77
-8 9 -31 37 -50 61 -43 56 -70 88 -91 109 -8 9 -30 36 -49 61 -19 25 -43 54
-55 65 -11 11 -30 33 -42 49 -30 38 -133 154 -214 241 -36 38 -90 97 -120 130
-29 33 -71 78 -91 100 -21 22 -38 43 -38 48 0 4 -6 7 -14 7 -8 0 -16 6 -19 13
-7 17 -37 -24 -32 -43 3 -8 -18 -40 -48 -71 -28 -31 -74 -82 -102 -114 -101
-117 -120 -139 -135 -155 -8 -9 -29 -32 -45 -51 -86 -97 -192 -216 -205 -230
-8 -9 -64 -70 -125 -135 -139 -151 -465 -478 -569 -569 -43 -39 -91 -82 -107
-97 -16 -15 -57 -50 -91 -78 -35 -28 -85 -71 -113 -95 -27 -23 -97 -77 -154
-120 -58 -43 -109 -82 -115 -86 -41 -33 -138 -99 -146 -99 -6 0 -10 -4 -10
-10 0 -5 -11 -12 -25 -16 -14 -3 -25 -10 -25 -15 0 -5 -6 -9 -14 -9 -7 0 -19
-7 -26 -15 -15 -18 -56 -20 -63 -2 -3 7 -6 4 -6 -6 -1 -10 -8 -25 -16 -33 -8
-9 -15 -26 -15 -39 0 -13 -7 -30 -15 -39 -8 -8 -15 -19 -15 -24 0 -5 -13 -28
-30 -50 -16 -23 -30 -44 -30 -47 0 -3 -12 -23 -27 -44 -16 -21 -35 -49 -43
-61 -8 -12 -21 -28 -27 -36 -7 -7 -13 -16 -13 -19 0 -6 -39 -60 -75 -102 -13
-16 -24 -30 -65 -83 -45 -59 -170 -208 -260 -310 -239 -271 -654 -677 -955
-935 -117 -100 -140 -120 -145 -126 -20 -22 -164 -121 -203 -139 -34 -15 -47
-26 -43 -36 5 -13 -9 -50 -25 -64 -3 -3 -23 -34 -45 -69 -21 -35 -47 -75 -56
-90 -10 -14 -21 -33 -25 -41 -4 -8 -17 -26 -30 -40 -13 -14 -26 -33 -29 -42
-3 -10 -10 -18 -15 -18 -5 0 -9 -5 -9 -10 0 -13 -229 -323 -241 -328 -5 -2 -9
-10 -9 -18 0 -8 -4 -14 -8 -14 -5 0 -23 -20 -41 -45 -17 -24 -37 -50 -44 -57
-7 -7 -28 -33 -47 -58 -19 -25 -42 -54 -52 -65 -9 -11 -41 -49 -70 -85 -29
-35 -64 -76 -78 -90 -14 -15 -43 -48 -65 -75 -65 -79 -108 -127 -150 -171 -22
-23 -69 -74 -105 -115 -107 -121 -166 -183 -352 -371 -144 -146 -182 -178
-198 -173 -11 3 -20 11 -20 16 0 5 -7 9 -15 9 -8 0 -15 7 -15 15 0 8 -6 15
-14 15 -8 0 -17 7 -20 16 -3 8 -10 12 -16 9 -6 -4 10 -25 35 -48 42 -40 56
-69 36 -81 -4 -3 -19 6 -31 19 -25 26 -40 32 -40 15 0 -5 7 -10 15 -10 8 0 15
-7 15 -15 0 -8 5 -15 10 -15 13 0 13 -47 0 -63 -23 -27 -100 -137 -100 -142 0
-3 -5 -11 -10 -18 -23 -26 -130 -178 -130 -183 0 -3 -6 -11 -13 -18 -6 -8 -19
-24 -27 -36 -8 -12 -21 -28 -28 -36 -6 -7 -12 -15 -12 -18 0 -3 -44 -65 -98
-139 -53 -74 -104 -144 -112 -156 -14 -21 -35 -49 -60 -78 -5 -7 -10 -16 -10
-22 0 -5 -7 -11 -15 -15 -8 -3 -15 -10 -15 -16 0 -6 -5 -16 -10 -23 -6 -7 -24
-28 -40 -47 -16 -19 -30 -39 -30 -44 0 -7 -54 -81 -70 -96 -3 -3 -16 -22 -30
-42 -14 -21 -28 -38 -32 -38 -5 0 -8 -7 -8 -15 0 -8 -4 -15 -9 -15 -5 0 -12
-8 -15 -17 -3 -10 -16 -29 -28 -43 -13 -14 -34 -42 -48 -62 -14 -21 -28 -38
-32 -38 -5 0 -8 -6 -8 -14 0 -8 -7 -16 -15 -20 -8 -3 -15 -10 -15 -16 0 -6 -6
-18 -12 -25 -24 -26 -35 -41 -113 -146 -76 -101 -99 -120 -116 -89 -43 82 -92
149 -144 199 -35 34 -68 61 -74 61 -19 0 -12 34 12 60 18 21 64 79 129 165 8
10 45 57 105 131 17 21 60 75 95 119 34 44 80 101 100 125 20 25 67 83 103
130 94 119 120 152 200 250 39 47 86 105 105 130 19 25 40 50 46 55 6 6 26 30
45 55 33 43 63 81 84 104 6 6 26 31 45 56 18 25 41 52 49 61 22 22 49 56 91
109 50 66 73 90 87 90 6 0 38 -27 71 -60 33 -32 62 -56 66 -53 3 4 -7 19 -24
34 -38 35 -41 62 -5 53 15 -4 25 -2 25 5 0 6 -7 11 -14 11 -18 0 -60 38 -69
62 -5 16 14 47 53 88 8 9 31 36 50 60 19 24 49 60 66 80 17 19 52 62 79 95 26
33 67 83 91 110 23 28 86 102 139 165 53 63 106 126 118 140 12 14 48 57 80
95 32 39 80 95 107 125 26 30 76 89 111 130 35 41 69 80 75 85 6 6 33 37 60
70 42 51 65 78 129 149 6 6 39 45 75 86 36 41 81 92 100 114 19 21 40 44 45
50 6 6 32 38 60 71 27 33 55 65 61 70 6 6 59 65 118 133 59 67 112 122 118
122 6 0 26 -16 44 -36 28 -29 34 -32 34 -16 0 11 7 23 16 26 12 5 11 10 -10
33 -15 15 -26 36 -26 46 0 17 79 112 214 257 34 36 99 108 146 159 47 52 100
110 119 130 18 20 86 92 150 161 64 68 150 160 191 204 264 279 1034 1060
1066 1081 19 12 24 11 52 -15 31 -28 31 -28 39 -7 9 28 5 48 -13 68 -13 15 7
38 198 222 117 113 235 224 263 247 27 24 90 82 140 130 49 48 131 123 180
166 50 44 113 100 140 126 56 52 81 74 144 126 24 21 56 48 70 62 14 14 76 68
136 120 61 51 112 96 115 99 3 4 25 22 50 41 25 19 63 51 84 70 21 19 44 40
50 45 6 6 34 28 61 50 28 22 65 53 83 69 18 17 56 48 85 69 29 22 54 42 57 46
3 4 34 29 70 56 36 27 67 52 70 55 3 3 34 28 70 55 36 27 67 53 68 57 5 12 62
10 62 -2 0 -5 9 -10 20 -10 17 0 19 3 11 19 -8 14 -7 22 5 31 13 11 12 16 -7
37 -29 30 -49 29 -79 -7z"/>
<path d="M8120 9580 c0 -5 5 -10 11 -10 5 0 7 5 4 10 -3 6 -8 10 -11 10 -2 0
-4 -4 -4 -10z"/>
<path d="M6170 7520 c0 -5 5 -10 11 -10 5 0 7 5 4 10 -3 6 -8 10 -11 10 -2 0
-4 -4 -4 -10z"/>
<path d="M6190 7490 c0 -5 7 -10 16 -10 8 0 12 5 9 10 -3 6 -10 10 -16 10 -5
0 -9 -4 -9 -10z"/>
<path d="M6145 7460 c3 -5 8 -10 11 -10 2 0 4 5 4 10 0 6 -5 10 -11 10 -5 0
-7 -4 -4 -10z"/>
<path d="M6220 7460 c0 -5 5 -10 10 -10 6 0 10 5 10 10 0 6 -4 10 -10 10 -5 0
-10 -4 -10 -10z"/>
<path d="M11022 4239 c-27 -31 -32 -46 -32 -87 0 -53 6 -62 69 -97 33 -19 36
-24 49 -100 7 -44 15 -155 18 -247 6 -175 7 -171 -40 -218 -14 -14 -19 -36
-21 -92 -1 -40 -10 -98 -20 -128 -48 -147 -17 -250 74 -250 75 0 121 43 152
139 18 58 19 74 9 86 -19 22 -33 19 -66 -17 -56 -61 -57 -64 -38 -93 17 -27
17 -28 -7 -46 -38 -29 -64 -24 -83 15 -20 42 -20 50 -1 112 36 113 50 151 68
182 18 30 18 37 7 73 -9 27 -14 106 -15 252 0 117 -4 240 -9 274 -8 60 -8 63
17 74 55 25 64 110 16 158 -17 17 -34 31 -37 31 -4 0 -23 4 -43 9 -33 8 -38 6
-67 -30z"/>
</g>
</svg>
